<?xml version="1.0" encoding="utf-8"?>
<!-- Generator: Adobe Illustrator 23.1.0, SVG Export Plug-In . SVG Version: 6.00 Build 0)  -->
<svg version="1.1" id="Layer_1" xmlns="http://www.w3.org/2000/svg" xmlns:xlink="http://www.w3.org/1999/xlink" x="0px" y="0px"
	 viewBox="0 0 24 24" style="enable-background:new 0 0 24 24;" xml:space="preserve">
<style type="text/css">
	.st0{fill:#E1E5EA;}
</style>
<path class="st0" d="M13,9h5.5L13,3.5V9 M6,2h8l6,6v12c0,1.1-0.9,2-2,2H6c-1.1,0-2-0.9-2-2V4C4,2.9,4.9,2,6,2 M14,20v-1
	c0-1.3-2.7-2-4-2s-4,0.7-4,2v1H14 M10,12c-1.1,0-2,0.9-2,2s0.9,2,2,2s2-0.9,2-2S11.1,12,10,12z"/>
</svg>
