<?xml version="1.0" encoding="utf-8"?>
<!-- Generator: Adobe Illustrator 23.1.0, SVG Export Plug-In . SVG Version: 6.00 Build 0)  -->
<svg version="1.1" id="Layer_1" xmlns="http://www.w3.org/2000/svg" xmlns:xlink="http://www.w3.org/1999/xlink" x="0px" y="0px"
	 viewBox="0 0 32.4 31.4" style="enable-background:new 0 0 32.4 31.4;" xml:space="preserve">
<style type="text/css">
	.st0{fill:#4EB0B3;}
	.st1{fill:#84DDDA;}
</style>
<g id="Logos">
	<g>
		<g>
			<path class="st0" d="M30.9,1.8h-8.5c-0.2,0-0.5,0.1-0.6,0.3l-5.7,10.8L10.5,2.1c-0.1-0.2-0.3-0.3-0.6-0.3H1.4
				C1,1.8,0.6,2.1,0.6,2.6v26.2c0,0.5,0.4,0.8,0.8,0.8h7.1l0,0c0,0,0,0,0,0l7.6-16.7l7.6,16.7h7.1c0.5,0,0.8-0.4,0.8-0.8V2.6
				C31.8,2.1,31.4,1.8,30.9,1.8z"/>
			<path class="st1" d="M15.9,12.9L8.2,29.5l0.4,0.2l0,0c1.7-2.1,4.5-3.5,7.6-3.5s5.9,1.4,7.6,3.5l0,0l0.4-0.1l-7.8-16.6L15.9,12.9
				L15.9,12.9z"/>
		</g>
	</g>
</g>
</svg>
